<svg class="hidden" width="0" height="0">
    <symbol id="svg-x" viewBox="0 0 24 24" fill="none" xmlns="http://www.w3.org/2000/svg">
        <path
            d="M13.4263 12.0123L18.7193 6.71929C18.8148 6.62704 18.891 6.5167 18.9434 6.39469C18.9958 6.27269 19.0234 6.14147 19.0245 6.00869C19.0257 5.87591 19.0004 5.74423 18.9501 5.62133C18.8998 5.49844 18.8256 5.38679 18.7317 5.29289C18.6378 5.199 18.5261 5.12475 18.4032 5.07447C18.2803 5.02419 18.1487 4.99888 18.0159 5.00004C17.8831 5.00119 17.7519 5.02878 17.6299 5.08119C17.5079 5.1336 17.3975 5.20978 17.3053 5.30529L12.0123 10.5983L6.71929 5.30529C6.53069 5.12313 6.27808 5.02234 6.01589 5.02461C5.75369 5.02689 5.50288 5.13206 5.31747 5.31747C5.13206 5.50288 5.02689 5.75369 5.02461 6.01589C5.02234 6.27808 5.12313 6.53069 5.30529 6.71929L10.5983 12.0123L5.30529 17.3053C5.20978 17.3975 5.1336 17.5079 5.08119 17.6299C5.02878 17.7519 5.00119 17.8831 5.00004 18.0159C4.99888 18.1487 5.02419 18.2803 5.07447 18.4032C5.12475 18.5261 5.199 18.6378 5.29289 18.7317C5.38679 18.8256 5.49844 18.8998 5.62133 18.9501C5.74423 19.0004 5.87591 19.0257 6.00869 19.0245C6.14147 19.0234 6.27269 18.9958 6.39469 18.9434C6.5167 18.891 6.62704 18.8148 6.71929 18.7193L12.0123 13.4263L17.3053 18.7193C17.4939 18.9014 17.7465 19.0022 18.0087 19C18.2709 18.9977 18.5217 18.8925 18.7071 18.7071C18.8925 18.5217 18.9977 18.2709 19 18.0087C19.0022 17.7465 18.9014 17.4939 18.7193 17.3053L13.4263 12.0123Z"
            fill="#1F2A37"/>
    </symbol>
    <symbol>
        <svg id="svg-adjustments" viewBox="0 0 16 16" fill="none" xmlns="http://www.w3.org/2000/svg">
            <path
                d="M4.00003 3.1999C4.00003 2.98773 3.91574 2.78425 3.76571 2.63422C3.61568 2.48419 3.4122 2.3999 3.20003 2.3999C2.98785 2.3999 2.78437 2.48419 2.63434 2.63422C2.48431 2.78425 2.40003 2.98773 2.40003 3.1999V9.0143C2.15682 9.15474 1.95485 9.35672 1.81444 9.59994C1.67402 9.84316 1.6001 10.1191 1.6001 10.3999C1.6001 10.6807 1.67402 10.9566 1.81444 11.1999C1.95485 11.4431 2.15682 11.6451 2.40003 11.7855V12.7999C2.40003 13.0121 2.48431 13.2156 2.63434 13.3656C2.78437 13.5156 2.98785 13.5999 3.20003 13.5999C3.4122 13.5999 3.61568 13.5156 3.76571 13.3656C3.91574 13.2156 4.00003 13.0121 4.00003 12.7999V11.7855C4.24324 11.6451 4.4452 11.4431 4.58562 11.1999C4.72603 10.9566 4.79996 10.6807 4.79996 10.3999C4.79996 10.1191 4.72603 9.84316 4.58562 9.59994C4.4452 9.35672 4.24324 9.15474 4.00003 9.0143V3.1999ZM8.80003 3.1999C8.80003 2.98773 8.71574 2.78425 8.56571 2.63422C8.41568 2.48419 8.2122 2.3999 8.00003 2.3999C7.78785 2.3999 7.58437 2.48419 7.43434 2.63422C7.28431 2.78425 7.20003 2.98773 7.20003 3.1999V4.2143C6.95682 4.35474 6.75485 4.55672 6.61444 4.79994C6.47402 5.04316 6.4001 5.31906 6.4001 5.5999C6.4001 5.88075 6.47402 6.15665 6.61444 6.39987C6.75485 6.64309 6.95682 6.84507 7.20003 6.9855V12.7999C7.20003 13.0121 7.28431 13.2156 7.43434 13.3656C7.58437 13.5156 7.78785 13.5999 8.00003 13.5999C8.2122 13.5999 8.41568 13.5156 8.56571 13.3656C8.71574 13.2156 8.80003 13.0121 8.80003 12.7999V6.9855C9.04324 6.84507 9.2452 6.64309 9.38562 6.39987C9.52603 6.15665 9.59996 5.88075 9.59996 5.5999C9.59996 5.31906 9.52603 5.04316 9.38562 4.79994C9.2452 4.55672 9.04324 4.35474 8.80003 4.2143V3.1999ZM12.8 2.3999C13.0122 2.3999 13.2157 2.48419 13.3657 2.63422C13.5157 2.78425 13.6 2.98773 13.6 3.1999V9.0143C13.8432 9.15474 14.0452 9.35672 14.1856 9.59994C14.326 9.84316 14.4 10.1191 14.4 10.3999C14.4 10.6807 14.326 10.9566 14.1856 11.1999C14.0452 11.4431 13.8432 11.6451 13.6 11.7855V12.7999C13.6 13.0121 13.5157 13.2156 13.3657 13.3656C13.2157 13.5156 13.0122 13.5999 12.8 13.5999C12.5879 13.5999 12.3844 13.5156 12.2343 13.3656C12.0843 13.2156 12 13.0121 12 12.7999V11.7855C11.7568 11.6451 11.5549 11.4431 11.4144 11.1999C11.274 10.9566 11.2001 10.6807 11.2001 10.3999C11.2001 10.1191 11.274 9.84316 11.4144 9.59994C11.5549 9.35672 11.7568 9.15474 12 9.0143V3.1999C12 2.98773 12.0843 2.78425 12.2343 2.63422C12.3844 2.48419 12.5879 2.3999 12.8 2.3999V2.3999Z"
                fill="#1F2A37"/>
        </svg>
    </symbol>
    <symbol>
        <svg id="svg-search" viewBox="0 0 16 16" fill="none" xmlns="http://www.w3.org/2000/svg">
            <path
                d="M13.0667 14L8.86667 9.8C8.53333 10.0667 8.15 10.2778 7.71667 10.4333C7.28333 10.5889 6.82222 10.6667 6.33333 10.6667C5.12222 10.6667 4.09722 10.2472 3.25833 9.40833C2.41944 8.56944 2 7.54444 2 6.33333C2 5.12222 2.41944 4.09722 3.25833 3.25833C4.09722 2.41944 5.12222 2 6.33333 2C7.54444 2 8.56944 2.41944 9.40833 3.25833C10.2472 4.09722 10.6667 5.12222 10.6667 6.33333C10.6667 6.82222 10.5889 7.28333 10.4333 7.71667C10.2778 8.15 10.0667 8.53333 9.8 8.86667L14 13.0667L13.0667 14ZM6.33333 9.33333C7.16667 9.33333 7.875 9.04167 8.45833 8.45833C9.04167 7.875 9.33333 7.16667 9.33333 6.33333C9.33333 5.5 9.04167 4.79167 8.45833 4.20833C7.875 3.625 7.16667 3.33333 6.33333 3.33333C5.5 3.33333 4.79167 3.625 4.20833 4.20833C3.625 4.79167 3.33333 5.5 3.33333 6.33333C3.33333 7.16667 3.625 7.875 4.20833 8.45833C4.79167 9.04167 5.5 9.33333 6.33333 9.33333Z"
                fill="#FEF7FF"/>
        </svg>
    </symbol>
    <symbol>
        <svg id="svg-key" viewBox="0 0 16 17" fill="none" xmlns="http://www.w3.org/2000/svg">
            <path fill-rule="evenodd" clip-rule="evenodd"
                  d="M14.4001 6.90011C14.4003 7.64985 14.2249 8.38921 13.8879 9.05895C13.5509 9.72868 13.0618 10.3102 12.4596 10.7568C11.8574 11.2034 11.159 11.5028 10.4203 11.6309C9.68155 11.759 8.9231 11.7123 8.2057 11.4945L8.0001 11.7001L7.2001 12.5001L6.4001 13.3001H4.8001V14.9001H1.6001V11.7001L5.0057 8.29451C4.80606 7.63452 4.75095 6.93927 4.84413 6.25607C4.93731 5.57287 5.1766 4.91776 5.54569 4.33535C5.91479 3.75293 6.40503 3.25687 6.98305 2.88092C7.56108 2.50498 8.21331 2.25799 8.89536 2.15675C9.57741 2.05552 10.2733 2.10242 10.9356 2.29426C11.5979 2.4861 12.2111 2.81838 12.7334 3.26848C13.2558 3.71858 13.675 4.27594 13.9626 4.90262C14.2502 5.5293 14.3994 6.21059 14.4001 6.90011V6.90011ZM9.6001 3.70011C9.38792 3.70011 9.18444 3.78439 9.03441 3.93442C8.88438 4.08445 8.8001 4.28794 8.8001 4.50011C8.8001 4.71228 8.88438 4.91577 9.03441 5.06579C9.18444 5.21582 9.38792 5.30011 9.6001 5.30011C10.0244 5.30011 10.4314 5.46868 10.7315 5.76874C11.0315 6.0688 11.2001 6.47576 11.2001 6.90011C11.2001 7.11228 11.2844 7.31577 11.4344 7.46579C11.5844 7.61582 11.7879 7.70011 12.0001 7.70011C12.2123 7.70011 12.4158 7.61582 12.5658 7.46579C12.7158 7.31577 12.8001 7.11228 12.8001 6.90011C12.8001 6.05142 12.463 5.23748 11.8628 4.63737C11.2627 4.03725 10.4488 3.70011 9.6001 3.70011Z"
                  fill="white"/>
        </svg>
    </symbol>
    <symbol>
        <svg id="svg-arrow-right" viewBox="0 0 16 17" fill="none" xmlns="http://www.w3.org/2000/svg">
            <path
                d="M13.9348 8.85601C13.9996 8.68585 14.0166 8.49862 13.9835 8.31799C13.9504 8.13736 13.8687 7.97146 13.7487 7.84127L10.32 4.11746C10.2409 4.02855 10.1463 3.95762 10.0417 3.90883C9.93713 3.86004 9.82465 3.83436 9.71083 3.83329C9.59701 3.83221 9.48414 3.85577 9.37879 3.90258C9.27344 3.94939 9.17774 4.01851 9.09725 4.10592C9.01677 4.19333 8.95312 4.29727 8.91002 4.41168C8.86692 4.5261 8.84523 4.64868 8.84622 4.77229C8.84721 4.89591 8.87085 5.01806 8.91578 5.13164C8.9607 5.24522 9.02601 5.34795 9.10788 5.43383L11.0743 7.56943H2.8572C2.62985 7.56943 2.41182 7.66751 2.25107 7.8421C2.09031 8.01669 2 8.25348 2 8.50038C2 8.74729 2.09031 8.98408 2.25107 9.15867C2.41182 9.33325 2.62985 9.43134 2.8572 9.43134H11.0743L9.10874 11.566C9.02686 11.6519 8.96156 11.7546 8.91664 11.8682C8.87171 11.9818 8.84806 12.1039 8.84707 12.2275C8.84609 12.3512 8.86777 12.4737 8.91088 12.5882C8.95398 12.7026 9.01763 12.8065 9.09811 12.8939C9.1786 12.9813 9.2743 13.0505 9.37965 13.0973C9.485 13.1441 9.59787 13.1676 9.71169 13.1666C9.82551 13.1655 9.93799 13.1398 10.0426 13.091C10.1472 13.0422 10.2417 12.9713 10.3208 12.8824L13.7496 9.15857C13.829 9.0719 13.8919 8.96909 13.9348 8.85601Z"
                fill="white"/>
        </svg>
    </symbol>
    <symbol>
        <svg id="svg-mail" viewBox="0 0 16 17" fill="none" xmlns="http://www.w3.org/2000/svg">
            <path
                d="M1.60254 5.20715L8.00014 8.40555L14.3977 5.20715C14.3741 4.79951 14.1954 4.41634 13.8984 4.13613C13.6014 3.85592 13.2085 3.69988 12.8001 3.69995H3.20014C2.79181 3.69988 2.3989 3.85592 2.10188 4.13613C1.80487 4.41634 1.62622 4.79951 1.60254 5.20715V5.20715Z"
                fill="#1F2A37"/>
            <path
                d="M14.4001 6.99438L8.0001 10.1944L1.6001 6.99438V11.7C1.6001 12.1243 1.76867 12.5313 2.06873 12.8314C2.36878 13.1314 2.77575 13.3 3.2001 13.3H12.8001C13.2244 13.3 13.6314 13.1314 13.9315 12.8314C14.2315 12.5313 14.4001 12.1243 14.4001 11.7V6.99438Z"
                fill="#111928"/>
        </svg>
    </symbol>
    <symbol>
        <svg id="svg-badge-check" viewBox="0 0 46 46" fill="none" xmlns="http://www.w3.org/2000/svg">
            <path
                d="M0.5 23C0.5 35.4264 10.5736 45.5 23 45.5C35.4264 45.5 45.5 35.4264 45.5 23C45.5 10.5736 35.4264 0.5 23 0.5C10.5736 0.5 0.5 10.5736 0.5 23Z"
                fill="#F3F4F6"/>
            <path
                d="M0.5 23C0.5 35.4264 10.5736 45.5 23 45.5C35.4264 45.5 45.5 35.4264 45.5 23C45.5 10.5736 35.4264 0.5 23 0.5C10.5736 0.5 0.5 10.5736 0.5 23Z"
                stroke="#E5E7EB"/>
            <path fill-rule="evenodd" clip-rule="evenodd"
                  d="M18.5206 15.146C19.2925 15.0843 20.0253 14.7807 20.6146 14.2784C21.2802 13.7115 22.1259 13.4001 23.0002 13.4001C23.8745 13.4001 24.7202 13.7115 25.3858 14.2784C25.9751 14.7807 26.7079 15.0843 27.4798 15.146C28.3515 15.2156 29.1699 15.5935 29.7883 16.2119C30.4067 16.8303 30.7846 17.6487 30.8542 18.5204C30.9154 19.292 31.219 20.0252 31.7218 20.6144C32.2887 21.28 32.6001 22.1257 32.6001 23C32.6001 23.8743 32.2887 24.72 31.7218 25.3856C31.2195 25.9749 30.9159 26.7077 30.8542 27.4796C30.7846 28.3513 30.4067 29.1697 29.7883 29.7881C29.1699 30.4064 28.3515 30.7843 27.4798 30.854C26.7079 30.9156 25.9751 31.2192 25.3858 31.7216C24.7202 32.2885 23.8745 32.5998 23.0002 32.5998C22.1259 32.5998 21.2802 32.2885 20.6146 31.7216C20.0253 31.2192 19.2925 30.9156 18.5206 30.854C17.6489 30.7843 16.8305 30.4064 16.2121 29.7881C15.5938 29.1697 15.2159 28.3513 15.1462 27.4796C15.0846 26.7077 14.781 25.9749 14.2786 25.3856C13.7117 24.72 13.4004 23.8743 13.4004 23C13.4004 22.1257 13.7117 21.28 14.2786 20.6144C14.781 20.0251 15.0846 19.2923 15.1462 18.5204C15.2159 17.6487 15.5938 16.8303 16.2121 16.2119C16.8305 15.5935 17.6489 15.2156 18.5206 15.146V15.146ZM27.4486 21.4484C27.6672 21.2221 27.7882 20.9189 27.7854 20.6043C27.7827 20.2897 27.6565 19.9887 27.434 19.7662C27.2115 19.5437 26.9105 19.4175 26.5959 19.4148C26.2813 19.412 25.9781 19.533 25.7518 19.7516L21.8002 23.7032L20.2486 22.1516C20.0223 21.933 19.7192 21.812 19.4045 21.8148C19.0899 21.8175 18.7889 21.9437 18.5664 22.1662C18.344 22.3887 18.2177 22.6897 18.215 23.0043C18.2123 23.3189 18.3332 23.6221 18.5518 23.8484L20.9518 26.2484C21.1769 26.4733 21.482 26.5997 21.8002 26.5997C22.1184 26.5997 22.4236 26.4733 22.6486 26.2484L27.4486 21.4484V21.4484Z"
                  fill="#111928"/>
        </svg>
    </symbol>
    <symbol>
        <svg id="svg-trash" viewBox="0 0 14 14" fill="none" xmlns="http://www.w3.org/2000/svg">
            <path
                d="M11.6667 3.62289H9.33333V2.39482C9.33333 2.06911 9.21042 1.75675 8.99162 1.52644C8.77283 1.29613 8.47609 1.16675 8.16667 1.16675H5.83333C5.52391 1.16675 5.22717 1.29613 5.00838 1.52644C4.78958 1.75675 4.66667 2.06911 4.66667 2.39482V3.62289H2.33333C2.17862 3.62289 2.03025 3.68758 1.92085 3.80274C1.81146 3.91789 1.75 4.07407 1.75 4.23692C1.75 4.39978 1.81146 4.55596 1.92085 4.67111C2.03025 4.78627 2.17862 4.85096 2.33333 4.85096H2.91667V11.6053C2.91667 11.931 3.03958 12.2434 3.25838 12.4737C3.47717 12.704 3.77391 12.8334 4.08333 12.8334H9.91667C10.2261 12.8334 10.5228 12.704 10.7416 12.4737C10.9604 12.2434 11.0833 11.931 11.0833 11.6053V4.85096H11.6667C11.8214 4.85096 11.9697 4.78627 12.0791 4.67111C12.1885 4.55596 12.25 4.39978 12.25 4.23692C12.25 4.07407 12.1885 3.91789 12.0791 3.80274C11.9697 3.68758 11.8214 3.62289 11.6667 3.62289ZM5.83333 2.39482H8.16667V3.62289H5.83333V2.39482ZM6.41667 10.3773C6.41667 10.5401 6.35521 10.6963 6.24581 10.8115C6.13642 10.9266 5.98804 10.9913 5.83333 10.9913C5.67862 10.9913 5.53025 10.9266 5.42085 10.8115C5.31146 10.6963 5.25 10.5401 5.25 10.3773V6.07903C5.25 5.91618 5.31146 5.75999 5.42085 5.64484C5.53025 5.52969 5.67862 5.46499 5.83333 5.46499C5.98804 5.46499 6.13642 5.52969 6.24581 5.64484C6.35521 5.75999 6.41667 5.91618 6.41667 6.07903V10.3773ZM8.75 10.3773C8.75 10.5401 8.68854 10.6963 8.57915 10.8115C8.46975 10.9266 8.32138 10.9913 8.16667 10.9913C8.01196 10.9913 7.86358 10.9266 7.75419 10.8115C7.64479 10.6963 7.58333 10.5401 7.58333 10.3773V6.07903C7.58333 5.91618 7.64479 5.75999 7.75419 5.64484C7.86358 5.52969 8.01196 5.46499 8.16667 5.46499C8.32138 5.46499 8.46975 5.52969 8.57915 5.64484C8.68854 5.75999 8.75 5.91618 8.75 6.07903V10.3773Z"
                fill="#E02424"/>
        </svg>
    </symbol>
    <symbol>
        <svg id="svg-check-circle" viewBox="0 0 14 14" fill="none" xmlns="http://www.w3.org/2000/svg">
            <path fill-rule="evenodd" clip-rule="evenodd"
                  d="M6.9999 12.5999C8.48512 12.5999 9.9095 12.0099 10.9597 10.9597C12.0099 9.9095 12.5999 8.48512 12.5999 6.9999C12.5999 5.51469 12.0099 4.09031 10.9597 3.0401C9.9095 1.9899 8.48512 1.3999 6.9999 1.3999C5.51469 1.3999 4.09031 1.9899 3.0401 3.0401C1.9899 4.09031 1.3999 5.51469 1.3999 6.9999C1.3999 8.48512 1.9899 9.9095 3.0401 10.9597C4.09031 12.0099 5.51469 12.5999 6.9999 12.5999ZM9.5948 6.0948C9.72231 5.96278 9.79287 5.78596 9.79127 5.60242C9.78968 5.41888 9.71606 5.24332 9.58628 5.11353C9.45649 4.98374 9.28092 4.91013 9.09738 4.90853C8.91385 4.90694 8.73702 4.97749 8.605 5.105L6.2999 7.4101L5.3948 6.505C5.26278 6.37749 5.08596 6.30694 4.90242 6.30853C4.71888 6.31013 4.54332 6.38374 4.41353 6.51353C4.28374 6.64332 4.21013 6.81888 4.20853 7.00242C4.20694 7.18596 4.27749 7.36278 4.405 7.4948L5.805 8.8948C5.93627 9.02603 6.11429 9.09975 6.2999 9.09975C6.48552 9.09975 6.66353 9.02603 6.7948 8.8948L9.5948 6.0948Z"
                  fill="#34C759"/>
        </svg>
    </symbol>
</svg>
