<svg class="hidden" width="0" height="0">
    <symbol id="svg-x" viewBox="0 0 24 24" fill="none" xmlns="http://www.w3.org/2000/svg">
        <path
            d="M13.4263 12.0123L18.7193 6.71929C18.8148 6.62704 18.891 6.5167 18.9434 6.39469C18.9958 6.27269 19.0234 6.14147 19.0245 6.00869C19.0257 5.87591 19.0004 5.74423 18.9501 5.62133C18.8998 5.49844 18.8256 5.38679 18.7317 5.29289C18.6378 5.199 18.5261 5.12475 18.4032 5.07447C18.2803 5.02419 18.1487 4.99888 18.0159 5.00004C17.8831 5.00119 17.7519 5.02878 17.6299 5.08119C17.5079 5.1336 17.3975 5.20978 17.3053 5.30529L12.0123 10.5983L6.71929 5.30529C6.53069 5.12313 6.27808 5.02234 6.01589 5.02461C5.75369 5.02689 5.50288 5.13206 5.31747 5.31747C5.13206 5.50288 5.02689 5.75369 5.02461 6.01589C5.02234 6.27808 5.12313 6.53069 5.30529 6.71929L10.5983 12.0123L5.30529 17.3053C5.20978 17.3975 5.1336 17.5079 5.08119 17.6299C5.02878 17.7519 5.00119 17.8831 5.00004 18.0159C4.99888 18.1487 5.02419 18.2803 5.07447 18.4032C5.12475 18.5261 5.199 18.6378 5.29289 18.7317C5.38679 18.8256 5.49844 18.8998 5.62133 18.9501C5.74423 19.0004 5.87591 19.0257 6.00869 19.0245C6.14147 19.0234 6.27269 18.9958 6.39469 18.9434C6.5167 18.891 6.62704 18.8148 6.71929 18.7193L12.0123 13.4263L17.3053 18.7193C17.4939 18.9014 17.7465 19.0022 18.0087 19C18.2709 18.9977 18.5217 18.8925 18.7071 18.7071C18.8925 18.5217 18.9977 18.2709 19 18.0087C19.0022 17.7465 18.9014 17.4939 18.7193 17.3053L13.4263 12.0123Z"
            fill="#1F2A37"/>
    </symbol>
    <symbol>
        <svg id="svg-adjustments" viewBox="0 0 16 16" fill="none" xmlns="http://www.w3.org/2000/svg">
            <path
                d="M4.00003 3.1999C4.00003 2.98773 3.91574 2.78425 3.76571 2.63422C3.61568 2.48419 3.4122 2.3999 3.20003 2.3999C2.98785 2.3999 2.78437 2.48419 2.63434 2.63422C2.48431 2.78425 2.40003 2.98773 2.40003 3.1999V9.0143C2.15682 9.15474 1.95485 9.35672 1.81444 9.59994C1.67402 9.84316 1.6001 10.1191 1.6001 10.3999C1.6001 10.6807 1.67402 10.9566 1.81444 11.1999C1.95485 11.4431 2.15682 11.6451 2.40003 11.7855V12.7999C2.40003 13.0121 2.48431 13.2156 2.63434 13.3656C2.78437 13.5156 2.98785 13.5999 3.20003 13.5999C3.4122 13.5999 3.61568 13.5156 3.76571 13.3656C3.91574 13.2156 4.00003 13.0121 4.00003 12.7999V11.7855C4.24324 11.6451 4.4452 11.4431 4.58562 11.1999C4.72603 10.9566 4.79996 10.6807 4.79996 10.3999C4.79996 10.1191 4.72603 9.84316 4.58562 9.59994C4.4452 9.35672 4.24324 9.15474 4.00003 9.0143V3.1999ZM8.80003 3.1999C8.80003 2.98773 8.71574 2.78425 8.56571 2.63422C8.41568 2.48419 8.2122 2.3999 8.00003 2.3999C7.78785 2.3999 7.58437 2.48419 7.43434 2.63422C7.28431 2.78425 7.20003 2.98773 7.20003 3.1999V4.2143C6.95682 4.35474 6.75485 4.55672 6.61444 4.79994C6.47402 5.04316 6.4001 5.31906 6.4001 5.5999C6.4001 5.88075 6.47402 6.15665 6.61444 6.39987C6.75485 6.64309 6.95682 6.84507 7.20003 6.9855V12.7999C7.20003 13.0121 7.28431 13.2156 7.43434 13.3656C7.58437 13.5156 7.78785 13.5999 8.00003 13.5999C8.2122 13.5999 8.41568 13.5156 8.56571 13.3656C8.71574 13.2156 8.80003 13.0121 8.80003 12.7999V6.9855C9.04324 6.84507 9.2452 6.64309 9.38562 6.39987C9.52603 6.15665 9.59996 5.88075 9.59996 5.5999C9.59996 5.31906 9.52603 5.04316 9.38562 4.79994C9.2452 4.55672 9.04324 4.35474 8.80003 4.2143V3.1999ZM12.8 2.3999C13.0122 2.3999 13.2157 2.48419 13.3657 2.63422C13.5157 2.78425 13.6 2.98773 13.6 3.1999V9.0143C13.8432 9.15474 14.0452 9.35672 14.1856 9.59994C14.326 9.84316 14.4 10.1191 14.4 10.3999C14.4 10.6807 14.326 10.9566 14.1856 11.1999C14.0452 11.4431 13.8432 11.6451 13.6 11.7855V12.7999C13.6 13.0121 13.5157 13.2156 13.3657 13.3656C13.2157 13.5156 13.0122 13.5999 12.8 13.5999C12.5879 13.5999 12.3844 13.5156 12.2343 13.3656C12.0843 13.2156 12 13.0121 12 12.7999V11.7855C11.7568 11.6451 11.5549 11.4431 11.4144 11.1999C11.274 10.9566 11.2001 10.6807 11.2001 10.3999C11.2001 10.1191 11.274 9.84316 11.4144 9.59994C11.5549 9.35672 11.7568 9.15474 12 9.0143V3.1999C12 2.98773 12.0843 2.78425 12.2343 2.63422C12.3844 2.48419 12.5879 2.3999 12.8 2.3999V2.3999Z"
                fill="currentColor"/>
        </svg>
    </symbol>
    <symbol>
        <svg id="svg-search" viewBox="0 0 16 16" fill="none" xmlns="http://www.w3.org/2000/svg">
            <path
                d="M13.0667 14L8.86667 9.8C8.53333 10.0667 8.15 10.2778 7.71667 10.4333C7.28333 10.5889 6.82222 10.6667 6.33333 10.6667C5.12222 10.6667 4.09722 10.2472 3.25833 9.40833C2.41944 8.56944 2 7.54444 2 6.33333C2 5.12222 2.41944 4.09722 3.25833 3.25833C4.09722 2.41944 5.12222 2 6.33333 2C7.54444 2 8.56944 2.41944 9.40833 3.25833C10.2472 4.09722 10.6667 5.12222 10.6667 6.33333C10.6667 6.82222 10.5889 7.28333 10.4333 7.71667C10.2778 8.15 10.0667 8.53333 9.8 8.86667L14 13.0667L13.0667 14ZM6.33333 9.33333C7.16667 9.33333 7.875 9.04167 8.45833 8.45833C9.04167 7.875 9.33333 7.16667 9.33333 6.33333C9.33333 5.5 9.04167 4.79167 8.45833 4.20833C7.875 3.625 7.16667 3.33333 6.33333 3.33333C5.5 3.33333 4.79167 3.625 4.20833 4.20833C3.625 4.79167 3.33333 5.5 3.33333 6.33333C3.33333 7.16667 3.625 7.875 4.20833 8.45833C4.79167 9.04167 5.5 9.33333 6.33333 9.33333Z"
                fill="currentColor"/>
        </svg>
    </symbol>
    <symbol>
        <svg id="svg-key" viewBox="0 0 16 17" fill="none" xmlns="http://www.w3.org/2000/svg">
            <path fill-rule="evenodd" clip-rule="evenodd"
                  d="M14.4001 6.90011C14.4003 7.64985 14.2249 8.38921 13.8879 9.05895C13.5509 9.72868 13.0618 10.3102 12.4596 10.7568C11.8574 11.2034 11.159 11.5028 10.4203 11.6309C9.68155 11.759 8.9231 11.7123 8.2057 11.4945L8.0001 11.7001L7.2001 12.5001L6.4001 13.3001H4.8001V14.9001H1.6001V11.7001L5.0057 8.29451C4.80606 7.63452 4.75095 6.93927 4.84413 6.25607C4.93731 5.57287 5.1766 4.91776 5.54569 4.33535C5.91479 3.75293 6.40503 3.25687 6.98305 2.88092C7.56108 2.50498 8.21331 2.25799 8.89536 2.15675C9.57741 2.05552 10.2733 2.10242 10.9356 2.29426C11.5979 2.4861 12.2111 2.81838 12.7334 3.26848C13.2558 3.71858 13.675 4.27594 13.9626 4.90262C14.2502 5.5293 14.3994 6.21059 14.4001 6.90011V6.90011ZM9.6001 3.70011C9.38792 3.70011 9.18444 3.78439 9.03441 3.93442C8.88438 4.08445 8.8001 4.28794 8.8001 4.50011C8.8001 4.71228 8.88438 4.91577 9.03441 5.06579C9.18444 5.21582 9.38792 5.30011 9.6001 5.30011C10.0244 5.30011 10.4314 5.46868 10.7315 5.76874C11.0315 6.0688 11.2001 6.47576 11.2001 6.90011C11.2001 7.11228 11.2844 7.31577 11.4344 7.46579C11.5844 7.61582 11.7879 7.70011 12.0001 7.70011C12.2123 7.70011 12.4158 7.61582 12.5658 7.46579C12.7158 7.31577 12.8001 7.11228 12.8001 6.90011C12.8001 6.05142 12.463 5.23748 11.8628 4.63737C11.2627 4.03725 10.4488 3.70011 9.6001 3.70011Z"
                  fill="white"/>
        </svg>
    </symbol>
    <symbol>
        <svg id="svg-arrow-right" viewBox="0 0 16 17" fill="none" xmlns="http://www.w3.org/2000/svg">
            <path
                d="M13.9348 8.85601C13.9996 8.68585 14.0166 8.49862 13.9835 8.31799C13.9504 8.13736 13.8687 7.97146 13.7487 7.84127L10.32 4.11746C10.2409 4.02855 10.1463 3.95762 10.0417 3.90883C9.93713 3.86004 9.82465 3.83436 9.71083 3.83329C9.59701 3.83221 9.48414 3.85577 9.37879 3.90258C9.27344 3.94939 9.17774 4.01851 9.09725 4.10592C9.01677 4.19333 8.95312 4.29727 8.91002 4.41168C8.86692 4.5261 8.84523 4.64868 8.84622 4.77229C8.84721 4.89591 8.87085 5.01806 8.91578 5.13164C8.9607 5.24522 9.02601 5.34795 9.10788 5.43383L11.0743 7.56943H2.8572C2.62985 7.56943 2.41182 7.66751 2.25107 7.8421C2.09031 8.01669 2 8.25348 2 8.50038C2 8.74729 2.09031 8.98408 2.25107 9.15867C2.41182 9.33325 2.62985 9.43134 2.8572 9.43134H11.0743L9.10874 11.566C9.02686 11.6519 8.96156 11.7546 8.91664 11.8682C8.87171 11.9818 8.84806 12.1039 8.84707 12.2275C8.84609 12.3512 8.86777 12.4737 8.91088 12.5882C8.95398 12.7026 9.01763 12.8065 9.09811 12.8939C9.1786 12.9813 9.2743 13.0505 9.37965 13.0973C9.485 13.1441 9.59787 13.1676 9.71169 13.1666C9.82551 13.1655 9.93799 13.1398 10.0426 13.091C10.1472 13.0422 10.2417 12.9713 10.3208 12.8824L13.7496 9.15857C13.829 9.0719 13.8919 8.96909 13.9348 8.85601Z"
                fill="white"/>
        </svg>
    </symbol>
    <symbol>
        <svg id="svg-mail" viewBox="0 0 16 17" fill="none" xmlns="http://www.w3.org/2000/svg">
            <path
                d="M1.60254 5.20715L8.00014 8.40555L14.3977 5.20715C14.3741 4.79951 14.1954 4.41634 13.8984 4.13613C13.6014 3.85592 13.2085 3.69988 12.8001 3.69995H3.20014C2.79181 3.69988 2.3989 3.85592 2.10188 4.13613C1.80487 4.41634 1.62622 4.79951 1.60254 5.20715V5.20715Z"
                fill="#1F2A37"/>
            <path
                d="M14.4001 6.99438L8.0001 10.1944L1.6001 6.99438V11.7C1.6001 12.1243 1.76867 12.5313 2.06873 12.8314C2.36878 13.1314 2.77575 13.3 3.2001 13.3H12.8001C13.2244 13.3 13.6314 13.1314 13.9315 12.8314C14.2315 12.5313 14.4001 12.1243 14.4001 11.7V6.99438Z"
                fill="#111928"/>
        </svg>
    </symbol>
    <symbol>
        <svg id="svg-badge-check" viewBox="0 0 46 46" fill="none" xmlns="http://www.w3.org/2000/svg">
            <path
                d="M0.5 23C0.5 35.4264 10.5736 45.5 23 45.5C35.4264 45.5 45.5 35.4264 45.5 23C45.5 10.5736 35.4264 0.5 23 0.5C10.5736 0.5 0.5 10.5736 0.5 23Z"
                fill="#F3F4F6"/>
            <path
                d="M0.5 23C0.5 35.4264 10.5736 45.5 23 45.5C35.4264 45.5 45.5 35.4264 45.5 23C45.5 10.5736 35.4264 0.5 23 0.5C10.5736 0.5 0.5 10.5736 0.5 23Z"
                stroke="#E5E7EB"/>
            <path fill-rule="evenodd" clip-rule="evenodd"
                  d="M18.5206 15.146C19.2925 15.0843 20.0253 14.7807 20.6146 14.2784C21.2802 13.7115 22.1259 13.4001 23.0002 13.4001C23.8745 13.4001 24.7202 13.7115 25.3858 14.2784C25.9751 14.7807 26.7079 15.0843 27.4798 15.146C28.3515 15.2156 29.1699 15.5935 29.7883 16.2119C30.4067 16.8303 30.7846 17.6487 30.8542 18.5204C30.9154 19.292 31.219 20.0252 31.7218 20.6144C32.2887 21.28 32.6001 22.1257 32.6001 23C32.6001 23.8743 32.2887 24.72 31.7218 25.3856C31.2195 25.9749 30.9159 26.7077 30.8542 27.4796C30.7846 28.3513 30.4067 29.1697 29.7883 29.7881C29.1699 30.4064 28.3515 30.7843 27.4798 30.854C26.7079 30.9156 25.9751 31.2192 25.3858 31.7216C24.7202 32.2885 23.8745 32.5998 23.0002 32.5998C22.1259 32.5998 21.2802 32.2885 20.6146 31.7216C20.0253 31.2192 19.2925 30.9156 18.5206 30.854C17.6489 30.7843 16.8305 30.4064 16.2121 29.7881C15.5938 29.1697 15.2159 28.3513 15.1462 27.4796C15.0846 26.7077 14.781 25.9749 14.2786 25.3856C13.7117 24.72 13.4004 23.8743 13.4004 23C13.4004 22.1257 13.7117 21.28 14.2786 20.6144C14.781 20.0251 15.0846 19.2923 15.1462 18.5204C15.2159 17.6487 15.5938 16.8303 16.2121 16.2119C16.8305 15.5935 17.6489 15.2156 18.5206 15.146V15.146ZM27.4486 21.4484C27.6672 21.2221 27.7882 20.9189 27.7854 20.6043C27.7827 20.2897 27.6565 19.9887 27.434 19.7662C27.2115 19.5437 26.9105 19.4175 26.5959 19.4148C26.2813 19.412 25.9781 19.533 25.7518 19.7516L21.8002 23.7032L20.2486 22.1516C20.0223 21.933 19.7192 21.812 19.4045 21.8148C19.0899 21.8175 18.7889 21.9437 18.5664 22.1662C18.344 22.3887 18.2177 22.6897 18.215 23.0043C18.2123 23.3189 18.3332 23.6221 18.5518 23.8484L20.9518 26.2484C21.1769 26.4733 21.482 26.5997 21.8002 26.5997C22.1184 26.5997 22.4236 26.4733 22.6486 26.2484L27.4486 21.4484V21.4484Z"
                  fill="#111928"/>
        </svg>
    </symbol>
    <symbol>
        <svg id="svg-trash" viewBox="0 0 14 14" fill="none" xmlns="http://www.w3.org/2000/svg">
            <path
                d="M11.6667 3.62289H9.33333V2.39482C9.33333 2.06911 9.21042 1.75675 8.99162 1.52644C8.77283 1.29613 8.47609 1.16675 8.16667 1.16675H5.83333C5.52391 1.16675 5.22717 1.29613 5.00838 1.52644C4.78958 1.75675 4.66667 2.06911 4.66667 2.39482V3.62289H2.33333C2.17862 3.62289 2.03025 3.68758 1.92085 3.80274C1.81146 3.91789 1.75 4.07407 1.75 4.23692C1.75 4.39978 1.81146 4.55596 1.92085 4.67111C2.03025 4.78627 2.17862 4.85096 2.33333 4.85096H2.91667V11.6053C2.91667 11.931 3.03958 12.2434 3.25838 12.4737C3.47717 12.704 3.77391 12.8334 4.08333 12.8334H9.91667C10.2261 12.8334 10.5228 12.704 10.7416 12.4737C10.9604 12.2434 11.0833 11.931 11.0833 11.6053V4.85096H11.6667C11.8214 4.85096 11.9697 4.78627 12.0791 4.67111C12.1885 4.55596 12.25 4.39978 12.25 4.23692C12.25 4.07407 12.1885 3.91789 12.0791 3.80274C11.9697 3.68758 11.8214 3.62289 11.6667 3.62289ZM5.83333 2.39482H8.16667V3.62289H5.83333V2.39482ZM6.41667 10.3773C6.41667 10.5401 6.35521 10.6963 6.24581 10.8115C6.13642 10.9266 5.98804 10.9913 5.83333 10.9913C5.67862 10.9913 5.53025 10.9266 5.42085 10.8115C5.31146 10.6963 5.25 10.5401 5.25 10.3773V6.07903C5.25 5.91618 5.31146 5.75999 5.42085 5.64484C5.53025 5.52969 5.67862 5.46499 5.83333 5.46499C5.98804 5.46499 6.13642 5.52969 6.24581 5.64484C6.35521 5.75999 6.41667 5.91618 6.41667 6.07903V10.3773ZM8.75 10.3773C8.75 10.5401 8.68854 10.6963 8.57915 10.8115C8.46975 10.9266 8.32138 10.9913 8.16667 10.9913C8.01196 10.9913 7.86358 10.9266 7.75419 10.8115C7.64479 10.6963 7.58333 10.5401 7.58333 10.3773V6.07903C7.58333 5.91618 7.64479 5.75999 7.75419 5.64484C7.86358 5.52969 8.01196 5.46499 8.16667 5.46499C8.32138 5.46499 8.46975 5.52969 8.57915 5.64484C8.68854 5.75999 8.75 5.91618 8.75 6.07903V10.3773Z"
                fill="currentColor"/>
        </svg>
    </symbol>
    <symbol>
        <svg id="svg-check-circle" viewBox="0 0 14 14" fill="none" xmlns="http://www.w3.org/2000/svg">
            <path fill-rule="evenodd" clip-rule="evenodd"
                  d="M6.9999 12.5999C8.48512 12.5999 9.9095 12.0099 10.9597 10.9597C12.0099 9.9095 12.5999 8.48512 12.5999 6.9999C12.5999 5.51469 12.0099 4.09031 10.9597 3.0401C9.9095 1.9899 8.48512 1.3999 6.9999 1.3999C5.51469 1.3999 4.09031 1.9899 3.0401 3.0401C1.9899 4.09031 1.3999 5.51469 1.3999 6.9999C1.3999 8.48512 1.9899 9.9095 3.0401 10.9597C4.09031 12.0099 5.51469 12.5999 6.9999 12.5999ZM9.5948 6.0948C9.72231 5.96278 9.79287 5.78596 9.79127 5.60242C9.78968 5.41888 9.71606 5.24332 9.58628 5.11353C9.45649 4.98374 9.28092 4.91013 9.09738 4.90853C8.91385 4.90694 8.73702 4.97749 8.605 5.105L6.2999 7.4101L5.3948 6.505C5.26278 6.37749 5.08596 6.30694 4.90242 6.30853C4.71888 6.31013 4.54332 6.38374 4.41353 6.51353C4.28374 6.64332 4.21013 6.81888 4.20853 7.00242C4.20694 7.18596 4.27749 7.36278 4.405 7.4948L5.805 8.8948C5.93627 9.02603 6.11429 9.09975 6.2999 9.09975C6.48552 9.09975 6.66353 9.02603 6.7948 8.8948L9.5948 6.0948Z"
                  fill="#34C759"/>
        </svg>
    </symbol>
    <symbol>
        <svg id="svg-edit-user-outline" viewBox="0 0 24 25" fill="none" xmlns="http://www.w3.org/2000/svg">
            <path
                d="M8.65541 11.9737C7.74412 11.9737 6.85329 11.6959 6.09557 11.1754C5.33786 10.6549 4.74729 9.9151 4.39855 9.04955C4.04981 8.18401 3.95857 7.23159 4.13635 6.31273C4.31414 5.39387 4.75297 4.54985 5.39735 3.88739C6.04174 3.22493 6.86273 2.77379 7.75652 2.59102C8.6503 2.40825 9.57674 2.50205 10.4187 2.86057C11.2606 3.21909 11.9802 3.82623 12.4865 4.6052C12.9928 5.38416 13.263 6.29998 13.263 7.23684C13.2617 8.4927 12.7758 9.69673 11.912 10.5848C11.0482 11.4728 9.87701 11.9723 8.65541 11.9737ZM8.65541 4.60526C8.14914 4.60526 7.65423 4.7596 7.23328 5.04877C6.81233 5.33793 6.48423 5.74892 6.29049 6.22978C6.09675 6.71064 6.04605 7.23976 6.14482 7.75024C6.24359 8.26072 6.48739 8.72962 6.84538 9.09765C7.20337 9.46568 7.65948 9.71632 8.15603 9.81786C8.65257 9.9194 9.16726 9.86728 9.635 9.66811C10.1027 9.46893 10.5025 9.13163 10.7838 8.69887C11.0651 8.26611 11.2152 7.75732 11.2152 7.23684C11.2152 6.53891 10.9455 5.86955 10.4654 5.37604C9.9854 4.88252 9.33431 4.60526 8.65541 4.60526Z"
                fill="currentColor"/>
            <path
                d="M7.23116 20.7747L7.30488 20.3947H4.04782V18.2895C4.04782 17.4519 4.37145 16.6487 4.94751 16.0565C5.52357 15.4643 6.30488 15.1316 7.11955 15.1316H9.09467L11.0555 13.1158C10.7704 13.0609 10.4813 13.0309 10.1913 13.0263H7.11955C5.76226 13.028 4.46103 13.583 3.50128 14.5697C2.54153 15.5564 2.00163 16.8941 2 18.2895V21.4474C2 21.7265 2.10788 21.9943 2.2999 22.1917C2.49192 22.3891 2.75235 22.5 3.02391 22.5H7.38474C7.17675 21.9512 7.12352 21.3532 7.23116 20.7747Z"
                fill="currentColor"/>
            <path
                d="M10.2425 22.4474C10.0905 22.4476 9.94047 22.413 9.80314 22.3461C9.66581 22.2793 9.54468 22.1819 9.44851 22.061C9.35235 21.94 9.28357 21.7986 9.24716 21.647C9.21075 21.4953 9.20763 21.3373 9.23802 21.1842L9.96295 17.4621C10.0027 17.2583 10.1004 17.0711 10.2435 16.9242L16.7586 10.2253C17.3356 9.63473 18.1167 9.30319 18.9309 9.30319C19.745 9.30319 20.5261 9.63473 21.1031 10.2253C21.6775 10.8185 22 11.6214 22 12.4584C22 13.2954 21.6775 14.0984 21.1031 14.6916L14.5859 21.3895C14.443 21.5366 14.261 21.637 14.0627 21.6779L10.4421 22.4232C10.3764 22.4374 10.3096 22.4455 10.2425 22.4474ZM11.9104 18.1916L11.548 20.0526L13.3582 19.68L19.6553 13.2074C19.7503 13.1096 19.8257 12.9935 19.8772 12.8657C19.9286 12.738 19.955 12.601 19.955 12.4628C19.9549 12.3245 19.9284 12.1876 19.8769 12.0599C19.8254 11.9322 19.7499 11.8162 19.6548 11.7184C19.5596 11.6207 19.4467 11.5432 19.3224 11.4903C19.1982 11.4375 19.065 11.4103 18.9305 11.4103C18.796 11.4104 18.6628 11.4376 18.5386 11.4906C18.4144 11.5436 18.3015 11.6211 18.2064 11.7189L11.9104 18.1916Z"
                fill="currentColor"/>
        </svg>
    </symbol>
    <symbol>
        <svg id="svg-edit" viewBox="0 0 18 19" fill="none" xmlns="http://www.w3.org/2000/svg">
            <path
                d="M12.7561 3.27414L11.6784 4.41234L14.1592 7.03255L15.2361 5.89436C15.399 5.72233 15.5283 5.51809 15.6164 5.2933C15.7046 5.06851 15.75 4.82757 15.75 4.58425C15.75 4.34093 15.7046 4.1 15.6164 3.87521C15.5283 3.65041 15.399 3.44617 15.2361 3.27414C14.9019 2.93769 14.4578 2.75 13.9961 2.75C13.5344 2.75 13.0903 2.93769 12.7561 3.27414Z"
                fill="#6B7280"/>
            <path
                d="M13.1672 8.08034L10.6864 5.46013L7.37149 8.95844C7.27341 9.06184 7.20652 9.1936 7.17925 9.3371L6.81023 11.3023C6.78752 11.4219 6.79315 11.5457 6.82661 11.6625C6.86007 11.7793 6.92033 11.8855 7.00204 11.9718C7.08374 12.0581 7.18435 12.1218 7.29495 12.1571C7.40554 12.1925 7.52269 12.1984 7.63598 12.1744L9.49655 11.7817C9.63216 11.7528 9.75665 11.6821 9.85435 11.5787L13.1672 8.08034Z"
                fill="#6B7280"/>
            <path
                d="M7.37149 8.95844C7.27341 9.06184 7.20652 9.1936 7.17925 9.3371L6.81023 11.3023C6.78752 11.4219 6.79315 11.5457 6.82661 11.6625C6.86007 11.7793 6.92033 11.8855 7.00204 11.9718C7.08374 12.0581 7.18435 12.1218 7.29495 12.1571C7.40554 12.1925 7.52269 12.1984 7.63598 12.1744L9.49655 11.7817C9.63216 11.7528 9.75665 11.6821 9.85435 11.5787L13.1672 8.08034L10.6864 5.46013L7.37149 8.95844Z"
                fill="#6B7280"/>
            <path
                d="M10.5237 12.4442C10.3276 12.6509 10.0782 12.7919 9.80664 12.8495L7.32588 13.3734C7.09942 13.4212 6.86529 13.4092 6.64427 13.3385C6.42325 13.2677 6.22217 13.1405 6.05887 12.968C5.89558 12.7955 5.77511 12.5832 5.70816 12.3497C5.64121 12.1163 5.62985 11.869 5.67508 11.6298L6.17109 9.00958C6.22567 8.72275 6.35916 8.45931 6.55485 8.25226L10.0066 4.60648C9.98739 4.5374 9.97748 4.46581 9.97713 4.39381H3.77031C3.36721 4.39421 2.98073 4.56351 2.6957 4.86457C2.41067 5.16562 2.25037 5.57383 2.25 5.99959V14.6442C2.25037 15.07 2.41067 15.4782 2.6957 15.7792C2.98073 16.0803 3.36721 16.2496 3.77031 16.25H11.9549C12.358 16.2496 12.7444 16.0803 13.0295 15.7792C13.3145 15.4782 13.4748 15.07 13.4752 14.6442V9.32673L10.5237 12.4442Z"
                fill="#6B7280"/>
        </svg>
    </symbol>
    <symbol>
        <svg id="svg-calendar-week" viewBox="0 0 20 20" xmlns="http://www.w3.org/2000/svg" fill="currentColor"
             aria-hidden="true">
            <path
                d="M20 4a2 2 0 0 0-2-2h-2V1a1 1 0 0 0-2 0v1h-3V1a1 1 0 0 0-2 0v1H6V1a1 1 0 0 0-2 0v1H2a2 2 0 0 0-2 2v2h20V4ZM0 18a2 2 0 0 0 2 2h16a2 2 0 0 0 2-2V8H0v10Zm5-8h10a1 1 0 0 1 0 2H5a1 1 0 0 1 0-2Z"/>
        </svg>
    </symbol>
    <symbol>
        <svg id="svg-plus" aria-hidden="true" xmlns="http://www.w3.org/2000/svg" fill="none" viewBox="0 0 24 24">
            <path stroke="currentColor" stroke-linecap="round" stroke-linejoin="round" stroke-width="2"
                  d="M5 12h14m-7 7V5"/>
        </svg>
    </symbol>
    <symbol>
        <svg id="svg-minus" aria-hidden="true" xmlns="http://www.w3.org/2000/svg" fill="none" viewBox="0 0 24 24">
            <path stroke="currentColor" stroke-linecap="round" stroke-linejoin="round" stroke-width="2" d="M5 12h14"/>
        </svg>
    </symbol>
    <symbol>
        <svg id="svg-search-outline" viewBox="0 0 17 17" fill="none" xmlns="http://www.w3.org/2000/svg">
            <path
                d="M7.22506 12.325C6.21637 12.325 5.23032 12.0259 4.39162 11.4655C3.55292 10.9051 2.89923 10.1086 2.51322 9.17668C2.12721 8.24478 2.02621 7.21934 2.223 6.23004C2.41979 5.24074 2.90552 4.332 3.61878 3.61876C4.33203 2.90551 5.24078 2.41978 6.23009 2.223C7.2194 2.02621 8.24486 2.12721 9.17677 2.51322C10.1087 2.89922 10.9052 3.5529 11.4656 4.39159C12.026 5.23028 12.3251 6.21632 12.3251 7.225C12.3236 8.57714 11.7858 9.87346 10.8297 10.8296C9.87355 11.7857 8.57722 12.3235 7.22506 12.325ZM7.22506 3.4C6.46854 3.4 5.72901 3.62433 5.09998 4.04463C4.47096 4.46493 3.98069 5.06231 3.69118 5.76124C3.40167 6.46016 3.32592 7.22924 3.47351 7.97122C3.6211 8.7132 3.9854 9.39475 4.52035 9.92968C5.05529 10.4646 5.73685 10.8289 6.47883 10.9765C7.22082 11.1241 7.98991 11.0483 8.68884 10.7588C9.38778 10.4693 9.98517 9.97907 10.4055 9.35005C10.8258 8.72104 11.0501 7.98151 11.0501 7.225C11.0491 6.21086 10.6458 5.23854 9.92866 4.52144C9.21154 3.80433 8.23922 3.40101 7.22506 3.4Z"
                fill="currentColor"/>
            <path
                d="M14.2376 14.875C14.0686 14.875 13.9064 14.8078 13.7869 14.6882L11.2369 12.1382C11.1208 12.018 11.0565 11.8569 11.0579 11.6898C11.0594 11.5226 11.1264 11.3628 11.2446 11.2446C11.3628 11.1264 11.5227 11.0593 11.6899 11.0579C11.857 11.0564 12.0181 11.1207 12.1383 11.2368L14.6883 13.7868C14.7775 13.8759 14.8382 13.9895 14.8628 14.1132C14.8873 14.2368 14.8747 14.365 14.8265 14.4814C14.7782 14.5979 14.6966 14.6975 14.5917 14.7675C14.4869 14.8376 14.3637 14.875 14.2376 14.875Z"
                fill="currentColor"/>
        </svg>
    </symbol>
    <symbol>
        <svg id="svg-refresh" viewBox="0 0 16 17" fill="none" xmlns="http://www.w3.org/2000/svg">
            <path fill-rule="evenodd" clip-rule="evenodd"
                  d="M3.20039 2.09998C3.41256 2.09998 3.61605 2.18426 3.76608 2.33429C3.91611 2.48432 4.00039 2.6878 4.00039 2.89998V4.58078C4.66602 3.90179 5.49354 3.40342 6.40499 3.1326C7.31644 2.86178 8.28182 2.82743 9.21022 3.03278C10.1386 3.23813 10.9995 3.67642 11.7117 4.30637C12.4239 4.93633 12.964 5.73721 13.2812 6.63358C13.3197 6.73338 13.3377 6.83989 13.3343 6.9468C13.3309 7.05372 13.3061 7.15886 13.2614 7.25602C13.2166 7.35318 13.1529 7.44038 13.0738 7.51246C12.9948 7.58454 12.9021 7.64004 12.8013 7.67568C12.7004 7.71131 12.5934 7.72636 12.4866 7.71993C12.3799 7.71349 12.2755 7.68571 12.1796 7.63823C12.0838 7.59075 11.9984 7.52452 11.9286 7.44347C11.8588 7.36243 11.806 7.2682 11.7732 7.16638C11.5317 6.48383 11.1096 5.87959 10.5517 5.41804C9.99392 4.95649 9.32133 4.65492 8.60564 4.54548C7.88995 4.43604 7.15798 4.52282 6.48772 4.79657C5.81746 5.07032 5.23403 5.52079 4.79959 6.09998H7.20039C7.41256 6.09998 7.61605 6.18426 7.76608 6.33429C7.91611 6.48432 8.00039 6.6878 8.00039 6.89998C8.00039 7.11215 7.91611 7.31563 7.76608 7.46566C7.61605 7.61569 7.41256 7.69998 7.20039 7.69998H3.20039C2.98822 7.69998 2.78473 7.61569 2.63471 7.46566C2.48468 7.31563 2.40039 7.11215 2.40039 6.89998V2.89998C2.40039 2.6878 2.48468 2.48432 2.63471 2.33429C2.78473 2.18426 2.98822 2.09998 3.20039 2.09998V2.09998ZM3.20679 9.34558C3.30586 9.31058 3.41085 9.29545 3.51577 9.30104C3.62069 9.30662 3.72348 9.33282 3.81827 9.37814C3.91306 9.42346 3.998 9.487 4.06823 9.56514C4.13846 9.64329 4.19261 9.7345 4.22759 9.83357C4.46908 10.5161 4.89123 11.1204 5.44905 11.5819C6.00686 12.0435 6.67945 12.345 7.39514 12.4545C8.11083 12.5639 8.8428 12.4771 9.51306 12.2034C10.1833 11.9296 10.7668 11.4792 11.2012 10.9H8.80039C8.58822 10.9 8.38473 10.8157 8.23471 10.6657C8.08468 10.5156 8.00039 10.3121 8.00039 10.1C8.00039 9.8878 8.08468 9.68432 8.23471 9.53429C8.38473 9.38426 8.58822 9.29998 8.80039 9.29998H12.8004C13.0126 9.29998 13.216 9.38426 13.3661 9.53429C13.5161 9.68432 13.6004 9.8878 13.6004 10.1V14.1C13.6004 14.3121 13.5161 14.5156 13.3661 14.6657C13.216 14.8157 13.0126 14.9 12.8004 14.9C12.5882 14.9 12.3847 14.8157 12.2347 14.6657C12.0847 14.5156 12.0004 14.3121 12.0004 14.1V12.4192C11.3348 13.0982 10.5072 13.5965 9.5958 13.8673C8.68435 14.1382 7.71896 14.1725 6.79057 13.9672C5.86217 13.7618 5.00133 13.3235 4.28912 12.6936C3.57691 12.0636 3.03677 11.2627 2.71959 10.3664C2.6846 10.2673 2.66946 10.1623 2.67505 10.0574C2.68064 9.95248 2.70684 9.84969 2.75216 9.7549C2.79747 9.6601 2.86102 9.57517 2.93916 9.50494C3.0173 9.4347 3.10852 9.38055 3.20759 9.34558H3.20679Z"
                  fill="white"/>
        </svg>
    </symbol>
    <symbol>
        <svg id="svg-phone" viewBox="0 0 24 24" aria-hidden="true" xmlns="http://www.w3.org/2000/svg"
             fill="currentColor">
            <path
                d="M7.978 4a2.553 2.553 0 0 0-1.926.877C4.233 6.7 3.699 8.751 4.153 10.814c.44 1.995 1.778 3.893 3.456 5.572 1.68 1.679 3.577 3.018 5.57 3.459 2.062.456 4.115-.073 5.94-1.885a2.556 2.556 0 0 0 .001-3.861l-1.21-1.21a2.689 2.689 0 0 0-3.802 0l-.617.618a.806.806 0 0 1-1.14 0l-1.854-1.855a.807.807 0 0 1 0-1.14l.618-.62a2.692 2.692 0 0 0 0-3.803l-1.21-1.211A2.555 2.555 0 0 0 7.978 4Z"/>
        </svg>
    </symbol>
    <symbol>
        <svg id="svg-chevron" aria-hidden="true" xmlns="http://www.w3.org/2000/svg" fill="none" viewBox="0 0 10 6">
            <path stroke="currentColor" stroke-linecap="round" stroke-linejoin="round" stroke-width="2"
                  d="M9 5 5 1 1 5"/>
        </svg>
    </symbol>
    <symbol>
        <svg id="svg-chart-pie" aria-hidden="true" xmlns="http://www.w3.org/2000/svg" fill="currentColor"
             viewBox="0 0 24 24">
            <path
                d="M13.5 2c-.178 0-.356.013-.492.022l-.074.005a1 1 0 0 0-.934.998V11a1 1 0 0 0 1 1h7.975a1 1 0 0 0 .998-.934l.005-.074A7.04 7.04 0 0 0 22 10.5 8.5 8.5 0 0 0 13.5 2Z"
            />
            <path d="M11 6.025a1 1 0 0 0-1.065-.998 8.5 8.5 0 1 0 9.038 9.039A1 1 0 0 0 17.975 13H11V6.025Z"/>
        </svg>
    </symbol>
    <symbol>
        <svg id="svg-file" aria-hidden="true" xmlns="http://www.w3.org/2000/svg" fill="currentColor"
             viewBox="0 0 24 24">
            <path fill-rule="evenodd"
                  d="M9 2.221V7H4.221a2 2 0 0 1 .365-.5L8.5 2.586A2 2 0 0 1 9 2.22ZM11 2v5a2 2 0 0 1-2 2H4v11a2 2 0 0 0 2 2h12a2 2 0 0 0 2-2V4a2 2 0 0 0-2-2h-7Z"
                  clip-rule="evenodd"/>
        </svg>
    </symbol>
    <symbol>
        <svg id="svg-file-right" aria-hidden="true" viewBox="0 0 16 20" fill="none" xmlns="http://www.w3.org/2000/svg">
            <path stroke="currentColor" stroke-width="2" stroke-linecap="round" stroke-linejoin="round"
                  d="M8.83301 1.66666H2.99967C2.55765 1.66666 2.13372 1.84226 1.82116 2.15482C1.5086 2.46738 1.33301 2.8913 1.33301 3.33333V16.6667C1.33301 17.1087 1.5086 17.5326 1.82116 17.8452C2.13372 18.1577 2.55765 18.3333 2.99967 18.3333H12.9997C13.4417 18.3333 13.8656 18.1577 14.1782 17.8452C14.4907 17.5326 14.6663 17.1087 14.6663 16.6667V7.5M8.83301 1.66666L14.6663 7.5M8.83301 1.66666V7.5H14.6663"/>
        </svg>
    </symbol>
    <symbol>
        <svg id="svg-person" aria-hidden="true" fill="none" xmlns="http://www.w3.org/2000/svg" viewBox="0 0 16 16">
            <path fill="currentColor"
                  d="M8 8C6.9 8 5.95833 7.60833 5.175 6.825C4.39167 6.04167 4 5.1 4 4C4 2.9 4.39167 1.95833 5.175 1.175C5.95833 0.391667 6.9 0 8 0C9.1 0 10.0417 0.391667 10.825 1.175C11.6083 1.95833 12 2.9 12 4C12 5.1 11.6083 6.04167 10.825 6.825C10.0417 7.60833 9.1 8 8 8ZM0 16V13.2C0 12.6333 0.145833 12.1125 0.4375 11.6375C0.729167 11.1625 1.11667 10.8 1.6 10.55C2.63333 10.0333 3.68333 9.64583 4.75 9.3875C5.81667 9.12917 6.9 9 8 9C9.1 9 10.1833 9.12917 11.25 9.3875C12.3167 9.64583 13.3667 10.0333 14.4 10.55C14.8833 10.8 15.2708 11.1625 15.5625 11.6375C15.8542 12.1125 16 12.6333 16 13.2V16H0ZM2 14H14V13.2C14 13.0167 13.9542 12.85 13.8625 12.7C13.7708 12.55 13.65 12.4333 13.5 12.35C12.6 11.9 11.6917 11.5625 10.775 11.3375C9.85833 11.1125 8.93333 11 8 11C7.06667 11 6.14167 11.1125 5.225 11.3375C4.30833 11.5625 3.4 11.9 2.5 12.35C2.35 12.4333 2.22917 12.55 2.1375 12.7C2.04583 12.85 2 13.0167 2 13.2V14ZM8 6C8.55 6 9.02083 5.80417 9.4125 5.4125C9.80417 5.02083 10 4.55 10 4C10 3.45 9.80417 2.97917 9.4125 2.5875C9.02083 2.19583 8.55 2 8 2C7.45 2 6.97917 2.19583 6.5875 2.5875C6.19583 2.97917 6 3.45 6 4C6 4.55 6.19583 5.02083 6.5875 5.4125C6.97917 5.80417 7.45 6 8 6Z"/>
        </svg>
    </symbol>
    <symbol>
        <svg id="svg-check-box" aria-hidden="true" viewBox="0 0 18 18" fill="none" xmlns="http://www.w3.org/2000/svg">
            <path fill="currentColor"
                  d="M7.6 13.2L14.65 6.15L13.25 4.75L7.6 10.4L4.75 7.55L3.35 8.95L7.6 13.2ZM2 18C1.45 18 0.979167 17.8042 0.5875 17.4125C0.195833 17.0208 0 16.55 0 16V2C0 1.45 0.195833 0.979167 0.5875 0.5875C0.979167 0.195833 1.45 0 2 0H16C16.55 0 17.0208 0.195833 17.4125 0.5875C17.8042 0.979167 18 1.45 18 2V16C18 16.55 17.8042 17.0208 17.4125 17.4125C17.0208 17.8042 16.55 18 16 18H2ZM2 16H16V2H2V16Z"
            />
        </svg>
    </symbol>
    <symbol>
        <svg id="svg-heart" aria-hidden="true" xmlns="http://www.w3.org/2000/svg" fill="none" viewBox="0 0 24 24">
            <path stroke="currentColor" stroke-linecap="round" stroke-linejoin="round" stroke-width="2"
                  d="M12.01 6.001C6.5 1 1 8 5.782 13.001L12.011 20l6.23-7C23 8 17.5 1 12.01 6.002Z"/>
        </svg>
    </symbol>
    <symbol>
        <svg id="svg-shield" aria-hidden="true" xmlns="http://www.w3.org/2000/svg" fill="none" viewBox="0 0 24 24">
            <path stroke="currentColor" stroke-linecap="round" stroke-linejoin="round" stroke-width="2"
                  d="M12 20a16.405 16.405 0 0 1-5.092-5.804A16.694 16.694 0 0 1 5 6.666L12 4l7 2.667a16.695 16.695 0 0 1-1.908 7.529A16.406 16.406 0 0 1 12 20Z"/>
        </svg>
    </symbol>
    <symbol>
        <svg id="svg-book-open" aria-hidden="true" xmlns="http://www.w3.org/2000/svg" fill="none" viewBox="0 0 24 24">
            <path stroke="currentColor" stroke-linecap="round" stroke-linejoin="round" stroke-width="2"
                  d="M12 6.03v13m0-13c-2.819-.831-4.715-1.076-8.029-1.023A.99.99 0 0 0 3 6v11c0 .563.466 1.014 1.03 1.007 3.122-.043 5.018.212 7.97 1.023m0-13c2.819-.831 4.715-1.076 8.029-1.023A.99.99 0 0 1 21 6v11c0 .563-.466 1.014-1.03 1.007-3.122-.043-5.018.212-7.97 1.023"/>
        </svg>
    </symbol>
    <symbol>
        <svg id="svg-arrow-right-circle" aria-hidden="true" fill="none" xmlns="http://www.w3.org/2000/svg"
             viewBox="0 0 20 20">
            <path stroke="currentColor" stroke-width="2" stroke-linecap="round" stroke-linejoin="round"
                  d="M10.0003 13.3333L13.3337 10M13.3337 10L10.0003 6.66667M13.3337 10H6.66699M18.3337 10C18.3337 14.6024 14.6027 18.3333 10.0003 18.3333C5.39795 18.3333 1.66699 14.6024 1.66699 10C1.66699 5.39763 5.39795 1.66667 10.0003 1.66667C14.6027 1.66667 18.3337 5.39763 18.3337 10Z"/>
        </svg>
    </symbol>
    <symbol>
        <svg id="svg-check-square" aria-hidden="true" fill="none" xmlns="http://www.w3.org/2000/svg"
             viewBox="0 0 19 18">
            <path stroke="currentColor" stroke-width="2" stroke-linecap="round" stroke-linejoin="round"
                  d="M6.5 8.16667L9 10.6667L17.3333 2.33333M16.5 9V14.8333C16.5 15.2754 16.3244 15.6993 16.0118 16.0118C15.6993 16.3244 15.2754 16.5 14.8333 16.5H3.16667C2.72464 16.5 2.30072 16.3244 1.98816 16.0118C1.67559 15.6993 1.5 15.2754 1.5 14.8333V3.16667C1.5 2.72464 1.67559 2.30072 1.98816 1.98816C2.30072 1.67559 2.72464 1.5 3.16667 1.5H12.3333"/>
        </svg>
    </symbol>
    <symbol>
        <svg id="svg-settings" aria-hidden="true" fill="none" xmlns="http://www.w3.org/2000/svg" viewBox="0 0 20 20">
            <path stroke="currentColor" stroke-width="2" stroke-linecap="round" stroke-linejoin="round"
                  d="M9.99967 12.5C11.3804 12.5 12.4997 11.3807 12.4997 10C12.4997 8.61929 11.3804 7.5 9.99967 7.5C8.61896 7.5 7.49967 8.61929 7.49967 10C7.49967 11.3807 8.61896 12.5 9.99967 12.5Z"/>
            <path stroke="currentColor" stroke-width="2" stroke-linecap="round" stroke-linejoin="round"
                  d="M16.1663 12.5C16.0554 12.7513 16.0223 13.0302 16.0713 13.3005C16.1204 13.5708 16.2492 13.8203 16.4413 14.0167L16.4913 14.0667C16.6463 14.2215 16.7692 14.4053 16.8531 14.6076C16.937 14.8099 16.9802 15.0268 16.9802 15.2458C16.9802 15.4649 16.937 15.6817 16.8531 15.8841C16.7692 16.0864 16.6463 16.2702 16.4913 16.425C16.3366 16.58 16.1527 16.7029 15.9504 16.7868C15.7481 16.8706 15.5312 16.9138 15.3122 16.9138C15.0931 16.9138 14.8763 16.8706 14.6739 16.7868C14.4716 16.7029 14.2878 16.58 14.133 16.425L14.083 16.375C13.8866 16.1829 13.6372 16.054 13.3668 16.005C13.0965 15.956 12.8177 15.9891 12.5663 16.1C12.3199 16.2056 12.1097 16.381 11.9616 16.6046C11.8135 16.8282 11.7341 17.0902 11.733 17.3583V17.5C11.733 17.942 11.5574 18.366 11.2449 18.6785C10.9323 18.9911 10.5084 19.1667 10.0663 19.1667C9.62431 19.1667 9.20039 18.9911 8.88783 18.6785C8.57527 18.366 8.39967 17.942 8.39967 17.5V17.425C8.39322 17.1492 8.30394 16.8817 8.14343 16.6573C7.98293 16.4328 7.75862 16.2619 7.49967 16.1667C7.24833 16.0557 6.96951 16.0226 6.69918 16.0717C6.42885 16.1207 6.17941 16.2496 5.98301 16.4417L5.93301 16.4917C5.77822 16.6466 5.5944 16.7696 5.39207 16.8534C5.18974 16.9373 4.97287 16.9805 4.75384 16.9805C4.53481 16.9805 4.31794 16.9373 4.11561 16.8534C3.91328 16.7696 3.72946 16.6466 3.57467 16.4917C3.41971 16.3369 3.29678 16.1531 3.21291 15.9507C3.12903 15.7484 3.08586 15.5315 3.08586 15.3125C3.08586 15.0935 3.12903 14.8766 3.21291 14.6743C3.29678 14.4719 3.41971 14.2881 3.57467 14.1333L3.62467 14.0833C3.81679 13.8869 3.94566 13.6375 3.99468 13.3672C4.04369 13.0968 4.0106 12.818 3.89967 12.5667C3.79404 12.3202 3.61864 12.11 3.39506 11.9619C3.17149 11.8139 2.9095 11.7344 2.64134 11.7333H2.49967C2.05765 11.7333 1.63372 11.5577 1.32116 11.2452C1.0086 10.9326 0.833008 10.5087 0.833008 10.0667C0.833008 9.62464 1.0086 9.20072 1.32116 8.88816C1.63372 8.5756 2.05765 8.4 2.49967 8.4H2.57467C2.8505 8.39355 3.11801 8.30427 3.34242 8.14376C3.56684 7.98325 3.73777 7.75895 3.83301 7.5C3.94394 7.24866 3.97703 6.96984 3.92801 6.69951C3.879 6.42918 3.75012 6.17973 3.55801 5.98334L3.50801 5.93334C3.35305 5.77855 3.23012 5.59473 3.14624 5.3924C3.06237 5.19007 3.0192 4.97319 3.0192 4.75417C3.0192 4.53514 3.06237 4.31827 3.14624 4.11594C3.23012 3.9136 3.35305 3.72979 3.50801 3.575C3.6628 3.42004 3.84661 3.29711 4.04894 3.21324C4.25127 3.12936 4.46815 3.08619 4.68717 3.08619C4.9062 3.08619 5.12308 3.12936 5.32541 3.21324C5.52774 3.29711 5.71155 3.42004 5.86634 3.575L5.91634 3.625C6.11274 3.81712 6.36219 3.94599 6.63252 3.99501C6.90285 4.04402 7.18166 4.01093 7.43301 3.9H7.49967C7.74615 3.79437 7.95635 3.61897 8.10442 3.39539C8.25248 3.17181 8.33194 2.90982 8.33301 2.64167V2.5C8.33301 2.05797 8.5086 1.63405 8.82116 1.32149C9.13372 1.00893 9.55765 0.833336 9.99967 0.833336C10.4417 0.833336 10.8656 1.00893 11.1782 1.32149C11.4907 1.63405 11.6663 2.05797 11.6663 2.5V2.575C11.6674 2.84316 11.7469 3.10515 11.8949 3.32872C12.043 3.5523 12.2532 3.7277 12.4997 3.83334C12.751 3.94426 13.0298 3.97736 13.3002 3.92834C13.5705 3.87932 13.8199 3.75045 14.0163 3.55834L14.0663 3.50834C14.2211 3.35337 14.4049 3.23044 14.6073 3.14657C14.8096 3.0627 15.0265 3.01952 15.2455 3.01952C15.4645 3.01952 15.6814 3.0627 15.8837 3.14657C16.0861 3.23044 16.2699 3.35337 16.4247 3.50834C16.5796 3.66312 16.7026 3.84694 16.7864 4.04927C16.8703 4.2516 16.9135 4.46848 16.9135 4.6875C16.9135 4.90653 16.8703 5.12341 16.7864 5.32574C16.7026 5.52807 16.5796 5.71188 16.4247 5.86667L16.3747 5.91667C16.1826 6.11307 16.0537 6.36252 16.0047 6.63284C15.9557 6.90317 15.9887 7.18199 16.0997 7.43334V7.5C16.2053 7.74648 16.3807 7.95668 16.6043 8.10475C16.8279 8.25281 17.0899 8.33227 17.358 8.33334H17.4997C17.9417 8.33334 18.3656 8.50893 18.6782 8.82149C18.9907 9.13405 19.1663 9.55797 19.1663 10C19.1663 10.442 18.9907 10.866 18.6782 11.1785C18.3656 11.4911 17.9417 11.6667 17.4997 11.6667H17.4247C17.1565 11.6677 16.8945 11.7472 16.671 11.8953C16.4474 12.0433 16.272 12.2535 16.1663 12.5Z"/>
        </svg>
    </symbol>
    <symbol>
        <svg id="svg-activity" aria-hidden="true" viewBox="0 0 20 18" fill="none" xmlns="http://www.w3.org/2000/svg">
            <path stroke="currentColor" stroke-width="2" stroke-linecap="round" stroke-linejoin="round"
                  d="M18.3337 9H15.0003L12.5003 16.5L7.50033 1.5L5.00033 9H1.66699"/>
        </svg>
    </symbol>
    <symbol>
        <svg id="svg-check" aria-hidden="true" viewBox="0 0 16 12" fill="none" xmlns="http://www.w3.org/2000/svg">
            <path stroke="currentColor" stroke-width="2" stroke-linecap="round" stroke-linejoin="round"
                  d="M14.6663 1L5.49967 10.1667L1.33301 6"/>
        </svg>
    </symbol>
    <symbol>
        <svg id="svg-clock" aria-hidden="true" xmlns="http://www.w3.org/2000/svg" fill="currentColor"
             viewBox="0 0 24 24">
            <path fill-rule="evenodd" clip-rule="evenodd"
                  d="M2 12C2 6.477 6.477 2 12 2s10 4.477 10 10-4.477 10-10 10S2 17.523 2 12Zm11-4a1 1 0 1 0-2 0v4a1 1 0 0 0 .293.707l3 3a1 1 0 0 0 1.414-1.414L13 11.586V8Z"/>
        </svg>
    </symbol>
    <symbol>
        <svg id="svg-exclamation-circle" aria-hidden="true" class="text-gray-800 dark:text-white"
             xmlns="http://www.w3.org/2000/svg"
             fill="none" viewBox="0 0 24 24">
            <path stroke="currentColor" stroke-linecap="round" stroke-linejoin="round" stroke-width="2"
                  d="M12 13V8m0 8h.01M21 12a9 9 0 1 1-18 0 9 9 0 0 1 18 0Z"/>
        </svg>
    </symbol>
</svg>
